<mxfile host="app.diagrams.net" modified="2021-10-30T05:25:34.445Z" agent="5.0 (Windows NT 10.0; Win64; x64) AppleWebKit/537.36 (KHTML, like Gecko) Chrome/95.0.4638.69 Safari/537.36" etag="01nAotvyhYtci0CXMRAA" version="15.4.1" type="github">
  <diagram name="Page-1" id="2ca16b54-16f6-2749-3443-fa8db7711227">
    <mxGraphModel dx="1278" dy="579" grid="1" gridSize="10" guides="1" tooltips="1" connect="1" arrows="1" fold="1" page="1" pageScale="1" pageWidth="1100" pageHeight="850" background="none" math="0" shadow="0">
      <root>
        <mxCell id="0" />
        <mxCell id="1" parent="0" />
        <mxCell id="2ed32ef02a7f4228-1" value="&lt;div style=&quot;box-sizing: border-box ; width: 100% ; background: #e4e4e4 ; padding: 2px&quot;&gt;Users&lt;/div&gt;&lt;table style=&quot;width: 100% ; font-size: 1em&quot; cellpadding=&quot;2&quot; cellspacing=&quot;0&quot;&gt;&lt;tbody&gt;&lt;tr&gt;&lt;td&gt;PK&lt;/td&gt;&lt;td&gt;userId&lt;/td&gt;&lt;/tr&gt;&lt;tr&gt;&lt;td&gt;FK1&lt;/td&gt;&lt;td&gt;addressId&lt;/td&gt;&lt;/tr&gt;&lt;tr&gt;&lt;td&gt;&lt;/td&gt;&lt;td&gt;cpf&lt;br&gt;gender&lt;br&gt;photo&lt;br&gt;firstName&lt;br&gt;lastName&lt;br&gt;email&lt;br&gt;password&lt;br&gt;telefone&lt;br&gt;ong&lt;br&gt;createdAt&lt;br&gt;updatedAt&lt;br&gt;&lt;br&gt;&lt;br&gt;&lt;/td&gt;&lt;td&gt;&lt;br&gt;&lt;/td&gt;&lt;td&gt;&lt;/td&gt;&lt;td&gt;&lt;/td&gt;&lt;td&gt;&lt;/td&gt;&lt;td&gt;&lt;/td&gt;&lt;/tr&gt;&lt;/tbody&gt;&lt;/table&gt;" style="verticalAlign=top;align=left;overflow=fill;html=1;rounded=0;shadow=0;comic=0;labelBackgroundColor=none;strokeWidth=1;fontFamily=Verdana;fontSize=12" parent="1" vertex="1">
          <mxGeometry x="20" y="140" width="180" height="220" as="geometry" />
        </mxCell>
        <mxCell id="2ed32ef02a7f4228-16" style="edgeStyle=orthogonalEdgeStyle;html=1;labelBackgroundColor=none;startArrow=ERmandOne;endArrow=ERoneToMany;fontFamily=Verdana;fontSize=12;align=left;" parent="1" source="2ed32ef02a7f4228-3" target="2ed32ef02a7f4228-4" edge="1">
          <mxGeometry relative="1" as="geometry" />
        </mxCell>
        <mxCell id="2ed32ef02a7f4228-3" value="&lt;div style=&quot;box-sizing: border-box ; width: 100% ; background: #e4e4e4 ; padding: 2px&quot;&gt;Events&lt;/div&gt;&lt;table style=&quot;width: 100% ; font-size: 1em&quot; cellpadding=&quot;2&quot; cellspacing=&quot;0&quot;&gt;&lt;tbody&gt;&lt;tr&gt;&lt;td&gt;PK&lt;/td&gt;&lt;td&gt;eventId&lt;/td&gt;&lt;/tr&gt;&lt;tr&gt;&lt;td&gt;FK1&lt;/td&gt;&lt;td&gt;petId&lt;/td&gt;&lt;/tr&gt;&lt;tr&gt;&lt;td&gt;&lt;/td&gt;&lt;td&gt;status&lt;/td&gt;&lt;/tr&gt;&lt;tr&gt;&lt;td&gt;&lt;br&gt;&lt;/td&gt;&lt;td&gt;phone&lt;br&gt;createdAt&lt;br&gt;&lt;br&gt;&lt;/td&gt;&lt;/tr&gt;&lt;/tbody&gt;&lt;/table&gt;" style="verticalAlign=top;align=left;overflow=fill;html=1;rounded=0;shadow=0;comic=0;labelBackgroundColor=none;strokeWidth=1;fontFamily=Verdana;fontSize=12" parent="1" vertex="1">
          <mxGeometry x="420" y="658.75" width="180" height="112.5" as="geometry" />
        </mxCell>
        <mxCell id="2ed32ef02a7f4228-4" value="&lt;div style=&quot;box-sizing: border-box ; width: 100% ; background: #e4e4e4 ; padding: 2px&quot;&gt;Pets&lt;/div&gt;&lt;table style=&quot;width: 100% ; font-size: 1em&quot; cellpadding=&quot;2&quot; cellspacing=&quot;0&quot;&gt;&lt;tbody&gt;&lt;tr&gt;&lt;td&gt;PK&lt;/td&gt;&lt;td&gt;petId&lt;/td&gt;&lt;/tr&gt;&lt;tr&gt;&lt;td&gt;FK1&lt;/td&gt;&lt;td&gt;eventId&lt;/td&gt;&lt;/tr&gt;&lt;tr&gt;&lt;td&gt;&lt;/td&gt;&lt;td&gt;type&lt;/td&gt;&lt;/tr&gt;&lt;tr&gt;&lt;td&gt;&lt;br&gt;&lt;/td&gt;&lt;td&gt;breed&lt;br&gt;age&lt;br&gt;size&lt;br&gt;desc&lt;br&gt;color&lt;br&gt;castrated&lt;br&gt;photos&lt;br&gt;createdAt&lt;br&gt;updatedAt&lt;br&gt;&lt;br&gt;&lt;br&gt;&lt;br&gt;&lt;/td&gt;&lt;/tr&gt;&lt;/tbody&gt;&lt;/table&gt;" style="verticalAlign=top;align=left;overflow=fill;html=1;rounded=0;shadow=0;comic=0;labelBackgroundColor=none;strokeWidth=1;fontFamily=Verdana;fontSize=12" parent="1" vertex="1">
          <mxGeometry x="110" y="600" width="180" height="230" as="geometry" />
        </mxCell>
        <mxCell id="2ed32ef02a7f4228-5" value="&lt;div style=&quot;box-sizing: border-box ; width: 100% ; background: #e4e4e4 ; padding: 2px&quot;&gt;Addresses&lt;/div&gt;&lt;table style=&quot;width: 100% ; font-size: 1em&quot; cellpadding=&quot;2&quot; cellspacing=&quot;0&quot;&gt;&lt;tbody&gt;&lt;tr&gt;&lt;td&gt;PK&lt;/td&gt;&lt;td&gt;addressId&lt;/td&gt;&lt;/tr&gt;&lt;tr&gt;&lt;td&gt;FK1&lt;/td&gt;&lt;td&gt;number&lt;/td&gt;&lt;/tr&gt;&lt;tr&gt;&lt;td&gt;&lt;/td&gt;&lt;td&gt;neighborhood&lt;br&gt;city&lt;br&gt;country&lt;br&gt;postalCode&lt;/td&gt;&lt;/tr&gt;&lt;/tbody&gt;&lt;/table&gt;" style="verticalAlign=top;align=left;overflow=fill;html=1;rounded=0;shadow=0;comic=0;labelBackgroundColor=none;strokeWidth=1;fontFamily=Verdana;fontSize=12" parent="1" vertex="1">
          <mxGeometry x="320" y="159" width="180" height="140" as="geometry" />
        </mxCell>
        <mxCell id="2ed32ef02a7f4228-13" value="" style="edgeStyle=orthogonalEdgeStyle;html=1;endArrow=ERoneToMany;startArrow=ERmandOne;labelBackgroundColor=none;fontFamily=Verdana;fontSize=12;align=left;exitX=1;exitY=0.5;entryX=0.009;entryY=0.647;exitDx=0;exitDy=0;entryDx=0;entryDy=0;entryPerimeter=0;" parent="1" source="2ed32ef02a7f4228-1" target="2ed32ef02a7f4228-5" edge="1">
          <mxGeometry width="100" height="100" relative="1" as="geometry">
            <mxPoint x="260" y="500" as="sourcePoint" />
            <mxPoint x="360" y="400" as="targetPoint" />
          </mxGeometry>
        </mxCell>
        <mxCell id="p2UeSNgkVkjTYPpMphwU-1" value="&lt;h1&gt;pethelp-user-api&lt;/h1&gt;&lt;p&gt;Lorem ipsum dolor sit amet, consectetur adipisicing elit, sed do eiusmod tempor incididunt ut labore et dolore magna aliqua.&lt;/p&gt;" style="text;html=1;strokeColor=none;fillColor=none;spacing=5;spacingTop=-20;whiteSpace=wrap;overflow=hidden;rounded=0;" vertex="1" parent="1">
          <mxGeometry x="20" y="15" width="220" height="120" as="geometry" />
        </mxCell>
        <mxCell id="p2UeSNgkVkjTYPpMphwU-2" value="&lt;h1&gt;pethelp-pet-api&lt;/h1&gt;&lt;p&gt;Lorem ipsum dolor sit amet, consectetur adipisicing elit, sed do eiusmod tempor incididunt ut labore et dolore magna aliqua.&lt;/p&gt;" style="text;html=1;strokeColor=none;fillColor=none;spacing=5;spacingTop=-20;whiteSpace=wrap;overflow=hidden;rounded=0;" vertex="1" parent="1">
          <mxGeometry x="40" y="450" width="220" height="120" as="geometry" />
        </mxCell>
        <mxCell id="p2UeSNgkVkjTYPpMphwU-3" value="POST /users/" style="text;html=1;strokeColor=none;fillColor=none;align=center;verticalAlign=middle;whiteSpace=wrap;rounded=0;" vertex="1" parent="1">
          <mxGeometry x="560" y="42" width="80" height="30" as="geometry" />
        </mxCell>
        <mxCell id="p2UeSNgkVkjTYPpMphwU-4" value="GET /users/{userid}" style="text;html=1;strokeColor=none;fillColor=none;align=left;verticalAlign=middle;whiteSpace=wrap;rounded=0;" vertex="1" parent="1">
          <mxGeometry x="560" y="310" width="110" height="30" as="geometry" />
        </mxCell>
        <mxCell id="p2UeSNgkVkjTYPpMphwU-6" value="PATCH /users/{userid}" style="text;html=1;strokeColor=none;fillColor=none;align=left;verticalAlign=middle;whiteSpace=wrap;rounded=0;" vertex="1" parent="1">
          <mxGeometry x="560" y="430" width="140" height="30" as="geometry" />
        </mxCell>
        <mxCell id="p2UeSNgkVkjTYPpMphwU-7" value="&lt;b&gt;Rotas:&lt;/b&gt;" style="text;html=1;strokeColor=none;fillColor=none;align=left;verticalAlign=middle;whiteSpace=wrap;rounded=0;" vertex="1" parent="1">
          <mxGeometry x="560" y="20" width="60" height="30" as="geometry" />
        </mxCell>
        <mxCell id="p2UeSNgkVkjTYPpMphwU-8" value="{&lt;br&gt;&amp;nbsp; &amp;nbsp; &amp;nbsp;&quot;cpf&quot;:&quot;&quot;,&lt;br&gt;&amp;nbsp; &amp;nbsp; &amp;nbsp;&quot;gender&quot;:&quot;&quot;,&amp;nbsp;&lt;br&gt;&amp;nbsp; &amp;nbsp; &amp;nbsp;&quot;firstName&quot;:&quot;&quot;,&lt;br&gt;&amp;nbsp; &amp;nbsp; &amp;nbsp;&quot;lastName&quot;:&quot;&quot;,&lt;br&gt;&amp;nbsp; &amp;nbsp; &amp;nbsp;&quot;email&quot;:&quot;&quot;,&lt;br&gt;&amp;nbsp; &amp;nbsp; &amp;nbsp;&quot;password&quot;:&quot;&quot;,&lt;br&gt;&amp;nbsp; &amp;nbsp; &amp;nbsp;&quot;telefone&quot;:&quot;&quot;,&lt;br&gt;&amp;nbsp; &amp;nbsp; &amp;nbsp;&quot;ong&quot;: boolean&quot;&lt;br&gt;}" style="text;html=1;strokeColor=none;fillColor=none;align=left;verticalAlign=middle;whiteSpace=wrap;rounded=0;" vertex="1" parent="1">
          <mxGeometry x="790" y="72" width="190" height="90" as="geometry" />
        </mxCell>
        <mxCell id="p2UeSNgkVkjTYPpMphwU-9" value="&lt;b&gt;Body request:&lt;/b&gt;" style="text;html=1;strokeColor=none;fillColor=none;align=left;verticalAlign=middle;whiteSpace=wrap;rounded=0;" vertex="1" parent="1">
          <mxGeometry x="790" y="20" width="90" height="30" as="geometry" />
        </mxCell>
        <mxCell id="p2UeSNgkVkjTYPpMphwU-10" value="&lt;b&gt;Response&lt;/b&gt;" style="text;html=1;strokeColor=none;fillColor=none;align=left;verticalAlign=middle;whiteSpace=wrap;rounded=0;" vertex="1" parent="1">
          <mxGeometry x="930" y="20" width="90" height="30" as="geometry" />
        </mxCell>
        <mxCell id="p2UeSNgkVkjTYPpMphwU-11" value="&lt;b&gt;201 - Created&lt;/b&gt;" style="text;html=1;strokeColor=none;fillColor=none;align=center;verticalAlign=middle;whiteSpace=wrap;rounded=0;" vertex="1" parent="1">
          <mxGeometry x="930" y="42" width="80" height="30" as="geometry" />
        </mxCell>
        <mxCell id="p2UeSNgkVkjTYPpMphwU-12" value="POST /authentication/" style="text;html=1;strokeColor=none;fillColor=none;align=center;verticalAlign=middle;whiteSpace=wrap;rounded=0;" vertex="1" parent="1">
          <mxGeometry x="560" y="200" width="120" height="30" as="geometry" />
        </mxCell>
        <mxCell id="p2UeSNgkVkjTYPpMphwU-13" value="{&lt;br&gt;&amp;nbsp; &amp;nbsp; &amp;nbsp;&quot;email&quot;:&quot;&quot;,&lt;br&gt;&amp;nbsp; &amp;nbsp; &amp;nbsp;&quot;password&quot;:&quot;&quot;&lt;br&gt;}" style="text;html=1;strokeColor=none;fillColor=none;align=left;verticalAlign=middle;whiteSpace=wrap;rounded=0;" vertex="1" parent="1">
          <mxGeometry x="810" y="190" width="190" height="90" as="geometry" />
        </mxCell>
        <mxCell id="p2UeSNgkVkjTYPpMphwU-14" value="{&lt;br&gt;&amp;nbsp; &amp;nbsp; &amp;nbsp;&quot;userId&quot;: &quot;&quot;,&lt;br&gt;&amp;nbsp; &amp;nbsp; &amp;nbsp;&quot;token&quot;:&quot;deve conter userId&quot;&lt;br&gt;}" style="text;html=1;strokeColor=none;fillColor=none;align=left;verticalAlign=middle;whiteSpace=wrap;rounded=0;" vertex="1" parent="1">
          <mxGeometry x="950" y="210" width="190" height="90" as="geometry" />
        </mxCell>
        <mxCell id="p2UeSNgkVkjTYPpMphwU-15" value="&lt;b&gt;200&lt;/b&gt;" style="text;html=1;strokeColor=none;fillColor=none;align=left;verticalAlign=middle;whiteSpace=wrap;rounded=0;" vertex="1" parent="1">
          <mxGeometry x="950" y="190" width="80" height="30" as="geometry" />
        </mxCell>
        <mxCell id="p2UeSNgkVkjTYPpMphwU-16" value="{&lt;br&gt;&amp;nbsp; &amp;nbsp; &amp;nbsp;&quot;userId&quot;:&quot;&quot;,&lt;br&gt;&amp;nbsp; &amp;nbsp; &amp;nbsp;&quot;firstName&quot;:&quot;&quot;,&amp;nbsp;&lt;br&gt;&amp;nbsp; &amp;nbsp; &amp;nbsp;&quot;lastName&quot;:&quot;&quot;,&lt;br&gt;&amp;nbsp; &amp;nbsp; &amp;nbsp;&quot;ong&quot;: boolean&quot;&lt;br&gt;}" style="text;html=1;strokeColor=none;fillColor=none;align=left;verticalAlign=middle;whiteSpace=wrap;rounded=0;" vertex="1" parent="1">
          <mxGeometry x="950" y="330" width="190" height="90" as="geometry" />
        </mxCell>
        <mxCell id="p2UeSNgkVkjTYPpMphwU-17" value="&lt;b&gt;200&lt;/b&gt;" style="text;html=1;strokeColor=none;fillColor=none;align=left;verticalAlign=middle;whiteSpace=wrap;rounded=0;" vertex="1" parent="1">
          <mxGeometry x="950" y="310" width="80" height="30" as="geometry" />
        </mxCell>
        <mxCell id="p2UeSNgkVkjTYPpMphwU-18" value="&lt;b&gt;Headers&lt;/b&gt;" style="text;html=1;strokeColor=none;fillColor=none;align=center;verticalAlign=middle;whiteSpace=wrap;rounded=0;" vertex="1" parent="1">
          <mxGeometry x="690" y="22" width="60" height="30" as="geometry" />
        </mxCell>
        <mxCell id="p2UeSNgkVkjTYPpMphwU-19" value="Authorization: token" style="text;html=1;strokeColor=none;fillColor=none;align=left;verticalAlign=middle;whiteSpace=wrap;rounded=0;" vertex="1" parent="1">
          <mxGeometry x="690" y="310" width="110" height="30" as="geometry" />
        </mxCell>
        <mxCell id="p2UeSNgkVkjTYPpMphwU-20" value="Authorization: token" style="text;html=1;strokeColor=none;fillColor=none;align=left;verticalAlign=middle;whiteSpace=wrap;rounded=0;" vertex="1" parent="1">
          <mxGeometry x="690" y="430" width="110" height="30" as="geometry" />
        </mxCell>
        <mxCell id="p2UeSNgkVkjTYPpMphwU-21" value="{&lt;br&gt;&amp;nbsp; &amp;nbsp; &amp;nbsp;&quot;cpf&quot;:&quot;&quot;,&lt;br&gt;&amp;nbsp; &amp;nbsp; &amp;nbsp;&quot;gender&quot;:&quot;&quot;,&amp;nbsp;&lt;br&gt;&amp;nbsp; &amp;nbsp; &amp;nbsp;&quot;firstName&quot;:&quot;&quot;,&lt;br&gt;&amp;nbsp; &amp;nbsp; &amp;nbsp;&quot;lastName&quot;:&quot;&quot;,&lt;br&gt;&amp;nbsp; &amp;nbsp; &amp;nbsp;&quot;email&quot;:&quot;&quot;,&lt;br&gt;&amp;nbsp; &amp;nbsp; &amp;nbsp;&quot;password&quot;:&quot;&quot;,&lt;br&gt;&amp;nbsp; &amp;nbsp; &amp;nbsp;&quot;telefone&quot;:&quot;&quot;,&lt;br&gt;&amp;nbsp; &amp;nbsp; &amp;nbsp;&quot;ong&quot;: boolean&quot;&lt;br&gt;}" style="text;html=1;strokeColor=none;fillColor=none;align=left;verticalAlign=middle;whiteSpace=wrap;rounded=0;" vertex="1" parent="1">
          <mxGeometry x="800" y="465" width="190" height="90" as="geometry" />
        </mxCell>
        <mxCell id="p2UeSNgkVkjTYPpMphwU-22" value="&lt;b&gt;200&lt;/b&gt;" style="text;html=1;strokeColor=none;fillColor=none;align=left;verticalAlign=middle;whiteSpace=wrap;rounded=0;" vertex="1" parent="1">
          <mxGeometry x="950" y="440" width="80" height="30" as="geometry" />
        </mxCell>
      </root>
    </mxGraphModel>
  </diagram>
</mxfile>
